<svg width="96" height="57" viewBox="0 0 96 57" fill="none" xmlns="http://www.w3.org/2000/svg">
<g clip-path="url(#clip0_929_2747)">
<path fill-rule="evenodd" clip-rule="evenodd" d="M16.8543 46.9965H9.19452L9.21558 49.5092H12.5331L12.5214 53.7087C11.5458 53.9427 9.54546 53.9216 8.58857 53.5613C6.09459 52.567 4.96223 50.6836 4.96223 48.0165C4.96223 43.9387 6.5625 41.0376 11.4031 41.0376C12.7949 41.0694 14.1744 41.3059 15.4973 41.7394L15.8062 39.2034C13.9752 38.6366 12.068 38.3549 10.1514 38.3681C1.56751 38.3681 0 43.7702 0 48.4727C0 52.4009 3.1865 56.5022 9.59225 56.5022C12.14 56.5022 15.0435 55.943 16.8449 55.1873L16.8543 46.9965Z" fill="#004E1D"/>
<path fill-rule="evenodd" clip-rule="evenodd" d="M36.7315 36.8687L36.7268 56.2333H41.1135V36.8687H36.7315Z" fill="#004E1D"/>
<path fill-rule="evenodd" clip-rule="evenodd" d="M41.7613 43.0381C42.9964 44.3853 44.0438 45.8931 44.8752 47.5207C45.9981 49.6341 46.8172 51.8954 47.3084 54.2376C47.4745 55.0635 47.5424 55.7583 47.6219 56.2309H50.3732C53.1246 53.4983 56.2736 48.3162 56.2736 43.0381H53.4287C53.3224 46.2457 52.3384 49.3628 50.5838 52.0501C50.5417 51.7764 50.4575 51.0535 50.3358 50.4405C49.7751 47.7278 48.5716 45.1893 46.8265 43.0381H41.7613Z" fill="#004E1D"/>
<path fill-rule="evenodd" clip-rule="evenodd" d="M74.3891 43.0382L74.4008 56.231H78.6589C78.7174 52.9556 78.825 50.5435 79.5292 48.4754C79.7514 47.9068 80.727 45.6047 82.4045 45.6047C82.7391 45.6047 83.5252 45.7123 83.6983 46.578C83.7703 47.0304 83.7946 47.4891 83.7708 47.9466V56.231H88.1529V47.6729C88.1792 47.0117 88.1408 46.3496 88.0382 45.6959C87.5703 43.3119 85.191 42.7715 83.8714 42.7715C80.5726 42.7715 79.0192 45.3567 78.4436 46.9289V43.0382H74.3891Z" fill="#004E1D"/>
<path d="M95.5501 43.0381H91.14V56.2309H95.5501V43.0381Z" fill="#004E1D"/>
<path d="M95.5501 36.8687H91.14V40.495H95.5501V36.8687Z" fill="#004E1D"/>
<path fill-rule="evenodd" clip-rule="evenodd" d="M33.6033 43.6933C31.735 43.1252 29.7979 42.8151 27.8456 42.7715C20.5813 42.7715 18.5084 48.5081 19.2524 52.2187C19.7624 54.7618 21.6458 56.4978 24.3152 56.4978C26.1518 56.4978 28.1895 55.7584 29.5325 52.1929L29.5512 56.231H33.5963L33.6033 43.6933ZM23.8941 51.9449C23.4075 49.5165 24.5702 44.856 28.0819 44.856C28.5041 44.8506 28.9254 44.8978 29.3359 44.9964C29.2424 47.3126 28.9125 49.4088 28.1662 51.2571C27.6374 52.6398 26.8794 53.6669 25.7564 53.6669C24.9867 53.6669 24.1351 53.1662 23.8847 51.9707L23.8941 51.9449Z" fill="#004E1D"/>
<path fill-rule="evenodd" clip-rule="evenodd" d="M61.5658 51.9449C61.0791 49.5165 62.2419 44.856 65.7536 44.856C66.1758 44.8505 66.5971 44.8976 67.0076 44.9964C66.9164 47.3126 66.5865 49.4088 65.8378 51.2571C65.3114 52.6398 64.5534 53.6669 63.4281 53.6669C62.6584 53.6669 61.8068 53.1662 61.5681 51.9707L61.5658 51.9449ZM71.275 43.6933C69.4068 43.1251 67.4696 42.8149 65.5173 42.7715C58.2529 42.7715 56.1801 48.5081 56.9241 52.2187C57.4364 54.7618 59.3198 56.4978 61.9892 56.4978C63.8235 56.4978 65.8612 55.7584 67.2042 52.1929L67.2229 56.231H71.2703L71.275 43.6933Z" fill="#004E1D"/>
<path d="M54.7954 33.6121C51.5861 34.576 48.1644 34.576 44.9551 33.6121L44.9668 26.5069C44.9668 25.2038 45.4845 23.9541 46.4058 23.0328C47.3272 22.1114 48.5769 21.5938 49.8799 21.5938C51.183 21.5938 52.4326 22.1114 53.354 23.0328C54.2754 23.9541 54.793 25.2038 54.793 26.5069L54.7954 33.6121Z" fill="#B3A400"/>
<path d="M36.9445 28.3828C35.6955 26.9226 34.7028 25.2614 34.0083 23.4697H39.9953C40.4492 23.4697 40.8235 23.5259 40.9709 23.8534C41.0001 23.9296 41.0112 24.0114 41.0035 24.0926C40.9958 24.1738 40.9694 24.252 40.9265 24.3213C40.8551 24.4527 40.7644 24.5725 40.6574 24.6769L36.9445 28.3828Z" fill="#B3A400"/>
<path d="M43.1955 32.9824C41.3531 32.1925 39.6646 31.0837 38.2075 29.707L41.9274 25.9964C42.0795 25.8397 42.517 25.5285 42.8633 25.6923C43.1276 25.8233 43.2095 26.2234 43.2095 26.6749L43.1955 32.9824Z" fill="#B3A400"/>
<path d="M61.54 29.7073C60.0829 31.0839 58.3944 32.1927 56.552 32.9827V26.6658C56.552 26.2143 56.6362 25.8142 56.9006 25.6832C57.2445 25.5101 57.682 25.8306 57.8364 25.9873L61.54 29.7073Z" fill="#B3A400"/>
<path d="M65.7373 23.4724C65.0435 25.2638 64.0515 26.925 62.8034 28.3855L59.0905 24.6726C58.9827 24.5683 58.8912 24.4485 58.8191 24.3169C58.7753 24.248 58.7486 24.1695 58.7413 24.0881C58.734 24.0067 58.7462 23.9247 58.777 23.849C58.9221 23.5215 59.2988 23.4653 59.7503 23.4653L65.7373 23.4724Z" fill="#B3A400"/>
<path fill-rule="evenodd" clip-rule="evenodd" d="M32.948 17.3849C32.9473 18.8425 33.1344 20.294 33.5048 21.7038H39.1478C40.3143 21.7072 41.47 21.4803 42.5486 21.0362C43.6273 20.592 44.6076 19.9394 45.4335 19.1157C46.2595 18.2919 46.9147 17.3133 47.3616 16.2358C47.8086 15.1584 48.0385 14.0033 48.0382 12.8368V0.516602C43.8881 0.978914 40.0542 2.95525 37.27 6.06744C34.4859 9.17963 32.947 13.2091 32.948 17.3849Z" fill="#004E1D"/>
<path fill-rule="evenodd" clip-rule="evenodd" d="M60.5367 21.7035H66.2219C66.8426 19.3497 66.9501 16.89 66.5372 14.491C66.1242 12.0919 65.2005 9.80972 63.8284 7.79892C62.4564 5.78812 60.6681 4.09573 58.5849 2.83642C56.5016 1.57711 54.172 0.780311 51.7539 0.5C51.7539 1.60896 51.7329 12.619 51.7329 12.8366C51.7239 13.9982 51.9451 15.1501 52.3835 16.2258C52.822 17.3015 53.4692 18.2797 54.2876 19.1041C55.1061 19.9284 56.0797 20.5825 57.1522 21.0287C58.2248 21.4748 59.3751 21.7042 60.5367 21.7035Z" fill="#004E1D"/>
</g>
<defs>
<clipPath id="clip0_929_2747">
<rect width="95.5505" height="56" fill="white" transform="translate(0 0.5)"/>
</clipPath>
</defs>
</svg>
